<?xml version="1.0" encoding="UTF-8" standalone="no"?>
<!-- Created with Inkscape (http://www.inkscape.org/) -->

<svg
   xmlns:dc="http://purl.org/dc/elements/1.1/"
   xmlns:cc="http://creativecommons.org/ns#"
   xmlns:rdf="http://www.w3.org/1999/02/22-rdf-syntax-ns#"
   xmlns:svg="http://www.w3.org/2000/svg"
   xmlns="http://www.w3.org/2000/svg"
   xmlns:sodipodi="http://sodipodi.sourceforge.net/DTD/sodipodi-0.dtd"
   xmlns:inkscape="http://www.inkscape.org/namespaces/inkscape"
   width="13"
   height="13"
   viewBox="0 0 3.4395831 3.4395832"
   version="1.1"
   id="svg8"
   inkscape:version="0.92.2 (5c3e80d, 2017-08-06)"
   sodipodi:docname="suit_c.svg"
   inkscape:export-filename="C:\Users\Jeffrey McClure\PreflopTrain\suit_h.png"
   inkscape:export-xdpi="96"
   inkscape:export-ydpi="96">
  <defs
     id="defs2" />
  <sodipodi:namedview
     id="base"
     pagecolor="#ffffff"
     bordercolor="#666666"
     borderopacity="1.0"
     inkscape:pageopacity="0"
     inkscape:pageshadow="2"
     inkscape:zoom="31.678384"
     inkscape:cx="10.312891"
     inkscape:cy="6.6848236"
     inkscape:document-units="mm"
     inkscape:current-layer="g1414"
     showgrid="false"
     inkscape:window-width="1920"
     inkscape:window-height="1017"
     inkscape:window-x="-8"
     inkscape:window-y="-8"
     inkscape:window-maximized="1"
     units="px" />
  <metadata
     id="metadata5">
    <rdf:RDF>
      <cc:Work
         rdf:about="">
        <dc:format>image/svg+xml</dc:format>
        <dc:type
           rdf:resource="http://purl.org/dc/dcmitype/StillImage" />
        <dc:title></dc:title>
      </cc:Work>
    </rdf:RDF>
  </metadata>
  <g
     inkscape:label="Layer 1"
     inkscape:groupmode="layer"
     id="layer1"
     transform="translate(0,-293.56041)">
    <g
       transform="matrix(0.39999999,0,0,0.39999999,-97.803857,251.28322)"
       id="g1414">
      <path
         style="fill:#00a318;fill-opacity:1;stroke:none;stroke-width:0.66250002;stroke-linecap:butt;stroke-linejoin:miter;stroke-miterlimit:4;stroke-dasharray:none;stroke-opacity:1"
         d="m 248.59257,113.22433 -0.0104,-1.51286 c 0,0 -0.91158,0.45564 -2.18134,0.27846 -1.26977,-0.17717 -2.008,-1.27959 -1.35835,-2.07688 0.64964,-0.79731 2.29402,-1.22072 2.4712,-0.39389 0.17718,0.82683 -0.61876,-1.41595 -0.4416,-2.05084 0.17717,-0.63489 1.10049,-1.13653 1.88302,-1.15133 0.78253,-0.0148 1.54494,0.5642 1.65619,1.26141 0.11125,0.69721 -0.75373,2.93951 -0.50743,2.08841 0.2463,-0.85111 1.92522,-0.71019 2.53403,0.23148 0.60881,0.94167 -0.53944,1.80268 -1.68842,2.09164 -0.91542,0.23623 -2.09388,-0.29397 -2.09388,-0.29397 l -0.003,1.52479 z"
         id="path816"
         inkscape:connector-curvature="0"
         sodipodi:nodetypes="cccczzzzzzcccc" />
    </g>
  </g>
</svg>
